<?xml version="1.0" encoding="UTF-8"?>
<!-- Generated by Pixelmator Pro 4.0 -->
<svg width="1000" height="1000" viewBox="0 0 1000 1000" xmlns="http://www.w3.org/2000/svg">
    <path id="Rectngulo" fill="#d5d5d5" fill-rule="evenodd" stroke="none" d="M 0 1000 L 1000 1000 L 1000 0 L 0 0 Z"/>
    <clipPath id="clipPath1">
        <path clip-rule="evenodd" d="M -0.284216 1004.454468 L 1000.488953 1004.454468 L 1000.488953 3.681274 L -0.284216 3.681274 Z"/>
    </clipPath>
    <path id="Pipa1" fill="#000000" fill-rule="evenodd" stroke="none" clip-path="url(#clipPath1)" d="M 653.101196 1024.511597 C 653.101196 1029.94458 657.504517 1034.348877 662.936096 1034.348877 C 668.367798 1034.348877 672.771118 1029.94458 672.771118 1024.511597 L 672.771118 370.337219 C 673.347656 248.502441 771.824036 149.812317 893.629456 149 C 1014.805542 149 1115.343262 249.221558 1115.343262 370.337219 C 1115.235229 888.482666 1115.343262 955.651184 1115.343262 955.651184 C 1112.987793 1011.669189 1063.193604 1054.023193 1007.158936 1054.023193 C 951.124329 1054.023193 906.247559 1055.588379 903.89209 999.570374 C 903.89209 999.570374 903.99054 888.482666 903.89209 370.337219 C 903.89209 364.904175 899.48877 360.5 894.05719 360.5 C 888.62561 360.5 884.222229 364.904175 884.222229 370.337219 L 884.222229 1024.511597 C 884.222229 1145.627441 784.107422 1240.930176 662.936096 1240.930176 C 541.764832 1240.930176 441.650024 1145.627441 441.650024 1024.511597 L 441.650024 586.755737 C 441.650024 581.322815 437.246704 576.91864 431.815094 576.91864 C 426.383514 576.91864 421.980194 581.322815 421.980194 586.755737 L 421.980194 1196.662842 C 421.403595 1318.49939 322.924286 1417.190308 201.116974 1418 C 79.945656 1418 -20.592024 1317.778564 -20.592024 1196.662842 L -20.592024 690.04657 C -20.754101 662.602661 -9.926315 636.236084 9.475237 616.830078 C 28.876793 597.424011 55.23735 586.593689 82.674828 586.755737 C 147.029602 586.755737 190.859116 632.543091 190.859116 690.04657 L 190.859116 1201.581421 C 190.859116 1207.014282 195.262482 1211.418579 200.694061 1211.418579 C 206.125687 1211.418579 210.529007 1207.014282 210.529007 1201.581421 L 210.529007 586.755737 C 211.293747 464.832825 309.920441 366.183533 431.815094 365.41864 C 550.539978 364.669556 648.455383 458.254822 653.101196 576.91864 C 653.101196 576.91864 653.007874 643.226318 653.101196 1024.511597 Z"/>
</svg>
