<?xml version="1.0" encoding="UTF-8"?>
<!-- Generated by Pixelmator Pro 4.0 -->
<svg width="1000" height="1000" viewBox="0 0 1000 1000" xmlns="http://www.w3.org/2000/svg">
    <path id="CORD" fill="#ffffff" stroke="none" d="M 690 589 C 688.163757 587.163757 688.656006 583.209473 688.656006 583.209473 L 688.656006 407.17157 C 688.656006 407.17157 690.051331 402.948669 692 401 C 694.663635 398.336365 699.956787 398.903992 699.956787 398.903992 L 741.935974 398.903992 C 759.98407 398.903992 776.063904 400.919983 790.176025 404.952026 C 804.288086 408.984009 816.191956 415.031982 825.888 423.096008 C 835.584045 431.160034 842.975952 441.191956 848.064026 453.192017 C 853.152039 465.192078 855.695984 479.063904 855.695984 494.807983 C 855.695984 510.552063 853.152039 524.42395 848.064026 536.424011 C 842.975952 548.424072 835.584045 558.455933 825.888 566.52002 C 816.191956 574.584045 804.288086 580.679993 790.176025 584.807983 C 776.063904 588.936035 759.98407 591 741.935974 591 L 695.45282 591 C 695.45282 591 691.602051 590.602051 690 589 Z M 750 536.280029 C 764.400085 536.280029 775.53595 532.87207 783.40802 526.05603 C 791.280029 519.23999 795.216003 508.824066 795.216003 494.807983 C 795.216003 480.791931 791.280029 470.424011 783.40802 463.703979 C 776.573792 457.869934 767.279663 454.568359 755.525391 453.799255 C 753.740295 453.682434 752.37915 453.535583 751 454 C 749.783142 454.40979 750 457.719971 750 457.719971 L 750 536.280029 Z M 522 400 C 523.038086 398.961914 525.156128 398.903992 525.156128 398.903992 L 586.992004 398.903992 C 599.280029 398.903992 610.655945 400.536011 621.119995 403.799988 C 631.584045 407.064026 640.656006 411.864014 648.335999 418.200012 C 656.016052 424.536011 662.015991 432.359985 666.335999 441.671997 C 670.656006 450.984009 672.815979 461.687927 672.815979 473.783997 C 672.815979 483.384033 671.471985 491.543945 668.783997 498.264008 C 666.096008 504.984039 663.119995 510.551971 659.856018 514.968018 C 656.015991 519.960022 651.696045 524.18396 646.895996 527.640015 L 679.793884 585.540283 C 679.793884 585.540283 682.052856 588.190918 681 590 C 680.133057 591.489685 677.725281 591 677.725281 591 L 615.265137 591 C 615.265137 591 612.264648 591.72229 611 591 C 609.8703 590.354736 608.913086 587.638306 608.913086 587.638306 L 582.096008 542.328003 L 582.096008 587.543335 C 582.096008 587.543335 581.814758 589.185242 581 590 C 580.028015 590.971985 577.97229 591 577.97229 591 L 524.519165 590.989014 C 524.519165 590.989014 522.889221 590.886597 522 590 C 521.142212 589.144714 520.752014 587.366089 520.752014 587.366089 L 520.752014 402.893677 C 520.752014 402.893677 521.059631 400.940369 522 400 Z M 575 489 C 580.801819 493.640686 598.751953 491.736023 603.839966 488.471985 C 608.92804 485.208008 613 479.679993 613 472 C 613 464.319946 608.92804 458.904053 603.839966 455.640015 C 598.751953 452.375977 580.801819 450.359314 575 455 C 569.489319 459.407837 569.036743 464.512268 569 471 C 568.96283 477.574707 569.415405 484.533081 575 489 Z M 247.440002 595.895996 C 258.57605 595.895996 268.463959 594.744019 277.104004 592.440002 C 285.744049 590.135986 293.135986 587.640015 299.279999 584.952026 C 305.154541 582.25293 310.372559 579.225586 314.934174 575.869995 C 315.888855 575.167725 316 574 316 574 C 316 574 317.055145 572.802795 316.144989 570.959045 L 288.585938 522.40625 C 288.589813 522.409485 288.479645 522.171265 288 522 C 287.066437 521.666748 286.099731 521.765076 285.374298 522.396118 C 282.995422 524.465576 280.334656 526.309509 277.391998 527.927979 C 274.127991 529.848022 270.096008 531.575989 265.296021 533.112 C 260.495972 534.64801 255.024033 535.416016 248.880005 535.416016 C 242.735962 535.416016 237.072021 534.359985 231.888 532.247986 C 226.703979 530.135986 222.192017 527.255981 218.35199 523.608032 C 214.511978 519.959961 211.488007 515.687988 209.279999 510.791992 C 207.071991 505.895996 205.968002 500.664032 205.968002 495.096008 C 205.968002 489.527954 207.023987 484.296021 209.136002 479.400024 C 211.248016 474.503967 214.17598 470.232056 217.919998 466.583984 C 221.664017 462.935974 226.031982 460.05603 231.024002 457.94397 C 236.016022 455.83197 241.487976 454.776001 247.440002 454.776001 C 253.200027 454.776001 258.335968 455.495972 262.847992 456.936035 C 267.360016 458.375977 271.247986 459.864014 274.511993 461.400024 L 280.710938 465.265625 C 282.052856 466.170959 284 467 284 467 C 284 467 285.88382 466.014282 286.680298 464.337646 L 312.796875 418.328125 L 314 415 C 314 415 312.24295 412.979553 310.862549 412.123047 C 306.590088 409.472168 301.769257 406.98584 296.399994 404.664001 C 290.255981 401.975952 282.912048 399.57605 274.367981 397.463989 C 265.823975 395.35199 256.080048 394.296021 245.136002 394.296021 C 231.31192 394.296021 218.256058 396.647949 205.968002 401.35199 C 193.679932 406.05603 182.92804 412.823975 173.712006 421.656006 C 164.495956 430.488037 157.200027 441.095947 151.824005 453.47998 C 146.447968 465.864075 143.759995 479.735901 143.759995 495.096008 C 143.759995 510.072083 146.351974 523.751953 151.535995 536.135986 C 156.720032 548.520081 163.919952 559.12793 173.136002 567.959961 C 182.352051 576.792053 193.295929 583.656006 205.968002 588.552002 C 218.64006 593.447998 232.463928 595.895996 247.440002 595.895996 Z M 404.112 595.895996 C 417.936066 595.895996 430.991943 593.256042 443.279999 587.976013 C 455.568054 582.695984 466.271942 575.496033 475.391998 566.375977 C 484.512054 557.255981 491.711975 546.552063 496.992004 534.264038 C 502.272034 521.975952 504.911987 508.920074 504.911987 495.096008 C 504.911987 481.271912 502.272034 468.216064 496.992004 455.927979 C 491.711975 443.639954 484.512054 432.936035 475.391998 423.81604 C 466.271942 414.695923 455.568054 407.496033 443.279999 402.216003 C 430.991943 396.935974 417.936066 394.296021 404.112 394.296021 C 390.287933 394.296021 377.232056 396.935974 364.944 402.216003 C 352.655945 407.496033 341.952026 414.695923 332.832001 423.81604 C 323.711975 432.936035 316.512024 443.639954 311.231995 455.927979 C 305.951965 468.216064 303.312012 481.271912 303.312012 495.096008 C 303.312012 508.920074 305.951965 521.975952 311.231995 534.264038 C 316.512024 546.552063 323.711975 557.255981 332.832001 566.375977 C 341.952026 575.496033 352.655945 582.695984 364.944 587.976013 C 377.232056 593.256042 390.287933 595.895996 404.112 595.895996 Z M 404.112 535.416016 C 398.543976 535.416016 393.312012 534.359985 388.416016 532.247986 C 383.519958 530.135986 379.248016 527.255981 375.600006 523.608032 C 371.951965 519.959961 369.072021 515.687988 366.960022 510.791992 C 364.847992 505.895996 363.791992 500.664032 363.791992 495.096008 C 363.791992 489.527954 364.847992 484.296021 366.960022 479.400024 C 369.072021 474.503967 371.951965 470.232056 375.600006 466.583984 C 379.248016 462.935974 383.519958 460.05603 388.416016 457.94397 C 393.312012 455.83197 398.543976 454.776001 404.112 454.776001 C 409.680023 454.776001 414.911987 455.83197 419.808014 457.94397 C 424.70401 460.05603 428.975983 462.935974 432.623993 466.583984 C 436.272003 470.232056 439.151978 474.503967 441.264008 479.400024 C 443.376007 484.296021 444.432007 489.527954 444.432007 495.096008 C 444.432007 500.664032 443.376007 505.895996 441.264008 510.791992 C 439.151978 515.687988 436.272003 519.959961 432.623993 523.608032 C 428.975983 527.255981 424.70401 530.135986 419.808014 532.247986 C 414.911987 534.359985 409.680023 535.416016 404.112 535.416016 Z"/>
</svg>
