<?xml version="1.0" encoding="UTF-8"?>
<!-- Generated by Pixelmator Pro 4.0 -->
<svg width="1000" height="1000" viewBox="0 0 1000 1000" xmlns="http://www.w3.org/2000/svg">
    <path id="Crculo" fill="#d5d5d5" fill-rule="evenodd" stroke="none" d="M 855 500 C 855 303.938782 696.061035 145 500 145 C 303.938873 145 145 303.938782 145 500 C 145 696.061218 303.938873 855 500 855 C 696.061035 855 855 696.061218 855 500 Z"/>
    <clipPath id="clipPath1">
        <path clip-rule="evenodd" d="M 863.329102 501.396332 C 863.329102 305.608826 701.555359 146.891724 501.997406 146.891724 C 302.439392 146.891724 140.665665 305.608826 140.665665 501.396332 C 140.665665 697.183838 302.439392 855.90094 501.997406 855.90094 C 701.555359 855.90094 863.329102 697.183838 863.329102 501.396332 Z"/>
    </clipPath>
    <path id="Pipa1" fill="#020429" fill-rule="evenodd" stroke="none" clip-path="url(#clipPath1)" d="M 612.478638 877.211426 C 612.478638 881.134644 615.658325 884.314941 619.580505 884.314941 C 623.502686 884.314941 626.682373 881.134644 626.682373 877.211426 L 626.682373 404.828735 C 627.098694 316.851196 698.208984 245.586609 786.165344 245 C 873.667236 245 946.265991 317.370483 946.265991 404.828735 C 946.187988 778.984253 946.265991 827.486938 946.265991 827.486938 C 944.565063 867.937866 908.608521 898.521973 868.145569 898.521973 C 827.682678 898.521973 795.276917 871.489624 793.575989 831.038696 C 793.575989 831.038696 793.647156 778.984253 793.575989 404.828735 C 793.575989 400.905518 790.396362 397.72522 786.474182 397.72522 C 782.552002 397.72522 779.372314 400.905518 779.372314 404.828735 L 779.372314 877.211426 C 779.372314 964.6698 707.078918 1033.488403 619.580505 1033.488403 C 532.082031 1033.488403 459.788666 964.6698 459.788666 877.211426 L 459.788666 561.105713 C 459.788666 557.182495 456.609009 554.002197 452.686798 554.002197 C 448.764618 554.002197 445.584961 557.182495 445.584961 561.105713 L 445.584961 1001.522705 C 445.16861 1089.501587 374.056183 1160.766724 286.098511 1161.35144 C 198.600067 1161.35144 126.001297 1088.981079 126.001297 1001.522705 L 126.001297 635.692505 C 125.884262 615.875183 133.703064 596.835693 147.713028 582.82251 C 161.722977 568.809265 180.758072 560.988647 200.570816 561.105713 C 247.041733 561.105713 278.691254 594.168945 278.691254 635.692505 L 278.691254 1005.074402 C 278.691254 1008.997559 281.870941 1012.177917 285.793121 1012.177917 C 289.715332 1012.177917 292.894989 1008.997559 292.894989 1005.074402 L 292.894989 561.105713 C 293.447205 473.064514 364.666046 401.829346 452.686798 401.277039 C 538.41864 400.736145 609.12384 468.314514 612.478638 554.002197 C 612.478638 554.002197 612.411255 601.883301 612.478638 877.211426 Z"/>
</svg>
