<?xml version="1.0" encoding="UTF-8"?>
<!-- Generated by Pixelmator Pro 4.0 -->
<svg width="1000" height="1000" viewBox="0 0 1000 1000" xmlns="http://www.w3.org/2000/svg">
    <g id="Grupo-copia">
        <path id="Salpicadura3" fill="#020429" stroke="none" d="M 471.026459 800 C 384.684723 800 391.685455 715.953308 391.685455 678.599243 C 391.685455 617.898804 381.145233 589.723816 354.34845 554.86377 C 290.646027 471.993164 198 470.817139 198 340.07782 C 198 298.054443 222.504532 257.553833 247.004745 239.688721 C 286.869781 210.619812 338.01355 200 429.022369 200 C 697.381714 200 800.058289 272.373535 800.058289 407.782104 C 800.058289 650.583618 578.370178 800 471.026459 800 Z"/>
        <path id="Crculo" fill="#020429" fill-rule="evenodd" stroke="none" d="M 321 629 C 321 601.385742 298.614227 579 271 579 C 243.385757 579 221 601.385742 221 629 C 221 656.614258 243.385757 679 271 679 C 298.614227 679 321 656.614258 321 629 Z"/>
    </g>
</svg>
